<?xml version="1.0" encoding="UTF-8" standalone="no"?>
<svg
	xmlns:svg="http://www.w3.org/2000/svg"
	xmlns="http://www.w3.org/2000/svg"
	version="1.1"
	width="400" height="400" viewBox="100 100 400 400">
	<title>11th Military Police Brigade Shoulder Sleeve Insignia</title>
	<defs>
		<clipPath id="CP01">
			<path d="M 264,204 C 213.1898,204 172,245.1898 172,296 172,346.8102 213.1898,388 264,388 264.8195,388 265.62315,387.99006 266.4375,387.96875 259.32463,380.01027 255,369.51377 255,358 255,333.14719 275.14719,313 300,313 324.85281,313 345,333.14719 345,358 345,369.51377 340.67537,380.01027 333.5625,387.96875 334.37685,387.99006 335.1805,388 336,388 386.8102,388 428,346.8102 428,296 428,245.1898 386.8102,204 336,204 335.1805,204 334.37685,204.00994 333.5625,204.03125 340.67537,211.98973 345,222.48623 345,234 345,258.85281 324.85281,279 300,279 275.14719,279 255,258.85281 255,234 255,222.48623 259.32463,211.98973 266.4375,204.03125 265.62315,204.00994 264.8195,204 264,204 z" />
		</clipPath>
	</defs>
	<circle cx="300" cy="300" r="200" style="fill:#668000;stroke:none" />
	<circle cx="300" cy="300" r="189" style="fill:#377d35;stroke:#fdcd30;stroke-width:16" />
	<path d="M 208,164 h 62 v 272 h -62 z M 330,164 h 62 v 272 h -62 z" style="fill:black;stroke:none" />
	<path d="M 264,204 C 213.1898,204 172,245.1898 172,296 172,346.8102 213.1898,388 264,388 264.8195,388 265.62315,387.99006 266.4375,387.96875 259.32463,380.01027 255,369.51377 255,358 255,333.14719 275.14719,313 300,313 324.85281,313 345,333.14719 345,358 345,369.51377 340.67537,380.01027 333.5625,387.96875 334.37685,387.99006 335.1805,388 336,388 386.8102,388 428,346.8102 428,296 428,245.1898 386.8102,204 336,204 335.1805,204 334.37685,204.00994 333.5625,204.03125 340.67537,211.98973 345,222.48623 345,234 345,258.85281 324.85281,279 300,279 275.14719,279 255,258.85281 255,234 255,222.48623 259.32463,211.98973 266.4375,204.03125 265.62315,204.00994 264.8195,204 264,204 z"
		style="fill:#fdcd30;stroke:none" />
	<path d="M 300,158 274,232 285,246 315,246 326,232 z" style="fill:#fdcd30;stroke:#fdcd30;stroke-width:1" />
	<rect width="30" height="244" x="285" y="246" style="fill:#fdcd30;stroke:none" />
	<rect width="40" height="80" x="280" y="256" style="fill:#fdcd30;stroke:#377d35;stroke-width:2" />
	<path d="M 284,246 316,246" style="fill:none;stroke:#377d35;stroke-width:2" />
	<g clip-path="url(#CP01)" style="fill:none;stroke:#377d35;stroke-width:2">
		<path d="M 264,374 A 78,78 0 1 1 264,218" />
		<path d="M 336,218 A 78,78 0 0 1 336,374" />
	</g>
</svg>
